<svg id="Capa_1" data-name="Capa 1" xmlns="http://www.w3.org/2000/svg" xmlns:xlink="http://www.w3.org/1999/xlink" viewBox="0 0 1694.11 549.21"><defs><style>.cls-1,.cls-6{fill:#345597;}.cls-2{fill:#fff;}.cls-3{fill:url(#Degradado_sin_nombre_7);}.cls-4{fill:url(#Degradado_sin_nombre_9);}.cls-5{fill:url(#Degradado_sin_nombre_5);}.cls-13,.cls-14,.cls-15,.cls-6{fill-rule:evenodd;}.cls-7{fill:url(#Degradado_sin_nombre_3);}.cls-8{fill:url(#Degradado_sin_nombre_3-2);}.cls-9{fill:url(#Degradado_sin_nombre_3-3);}.cls-10{fill:url(#Degradado_sin_nombre_3-4);}.cls-11{fill:url(#Degradado_sin_nombre_3-5);}.cls-12{fill:none;}.cls-13{fill:url(#Degradado_sin_nombre_375);}.cls-15{fill:#1f3694;}.cls-16{fill:url(#Degradado_sin_nombre_8);}</style><linearGradient id="Degradado_sin_nombre_7" x1="849.39" y1="473.05" x2="910.91" y2="520.45" gradientUnits="userSpaceOnUse"><stop offset="0" stop-color="#6bbc59"/><stop offset="0.07" stop-color="#60b05d"/><stop offset="0.21" stop-color="#439068"/><stop offset="0.39" stop-color="#155c79"/><stop offset="0.46" stop-color="#004481"/></linearGradient><linearGradient id="Degradado_sin_nombre_9" x1="901.42" y1="531.24" x2="989.33" y2="496.99" gradientUnits="userSpaceOnUse"><stop offset="0.26" stop-color="#004481"/><stop offset="0.31" stop-color="#084d7e"/><stop offset="0.41" stop-color="#1d6576"/><stop offset="0.52" stop-color="#408c69"/><stop offset="0.64" stop-color="#6bbc59"/></linearGradient><linearGradient id="Degradado_sin_nombre_5" x1="929.16" y1="323.59" x2="922.7" y2="564.34" gradientUnits="userSpaceOnUse"><stop offset="0.01" stop-color="#6bbc59"/><stop offset="0.29" stop-color="#6bbc59"/><stop offset="0.34" stop-color="#6bbc59"/><stop offset="0.4" stop-color="#428e68"/><stop offset="0.48" stop-color="#13597a"/><stop offset="0.52" stop-color="#004481"/></linearGradient><linearGradient id="Degradado_sin_nombre_3" x1="817.44" y1="598.25" x2="817.44" y2="462.32" gradientUnits="userSpaceOnUse"><stop offset="0" stop-color="#98681a"/><stop offset="0" stop-color="#d4d4d4"/><stop offset="0" stop-color="#fff"/><stop offset="0"/><stop offset="0" stop-color="#fff"/><stop offset="0.05" stop-color="#fff"/><stop offset="0.12" stop-color="#fff"/><stop offset="1" stop-color="#fff"/></linearGradient><linearGradient id="Degradado_sin_nombre_3-2" x1="576.91" y1="429.55" x2="576.91" y2="375.9" xlink:href="#Degradado_sin_nombre_3"/><linearGradient id="Degradado_sin_nombre_3-3" x1="564.65" y1="598.25" x2="564.65" y2="462.32" xlink:href="#Degradado_sin_nombre_3"/><linearGradient id="Degradado_sin_nombre_3-4" x1="248.55" y1="165.02" x2="248.55" y2="111.37" xlink:href="#Degradado_sin_nombre_3"/><linearGradient id="Degradado_sin_nombre_3-5" x1="300.11" y1="598.25" x2="300.11" y2="462.32" xlink:href="#Degradado_sin_nombre_3"/><linearGradient id="Degradado_sin_nombre_375" x1="560.99" y1="318.07" x2="553.53" y2="596.04" gradientUnits="userSpaceOnUse"><stop offset="0.13" stop-color="#26447a"/><stop offset="0.19" stop-color="#254378"/><stop offset="0.21" stop-color="#233f71"/><stop offset="0.23" stop-color="#203966"/><stop offset="0.24" stop-color="#1a2f55"/><stop offset="0.25" stop-color="#14233f"/><stop offset="0.26" stop-color="#0b1424"/><stop offset="0.27" stop-color="#010204"/><stop offset="0.27"/><stop offset="0.36" stop-color="#020305"/><stop offset="0.48" stop-color="#060b14"/><stop offset="0.6" stop-color="#0e192d"/><stop offset="0.74" stop-color="#192c50"/><stop offset="0.87" stop-color="#26457c"/><stop offset="0.88" stop-color="#27467e"/></linearGradient><linearGradient id="Degradado_sin_nombre_8" x1="894.6" y1="507.05" x2="894.6" y2="82.37" gradientUnits="userSpaceOnUse"><stop offset="0.13" stop-color="#004481"/><stop offset="0.19" stop-color="#00437f"/><stop offset="0.21" stop-color="#003f78"/><stop offset="0.23" stop-color="#00396d"/><stop offset="0.24" stop-color="#00305c"/><stop offset="0.25" stop-color="#002546"/><stop offset="0.26" stop-color="#00162a"/><stop offset="0.27" stop-color="#00060b"/><stop offset="0.27"/><stop offset="0.34" stop-color="#000502"/><stop offset="0.43" stop-color="#011409"/><stop offset="0.53" stop-color="#032d13"/><stop offset="0.64" stop-color="#055022"/><stop offset="0.75" stop-color="#077d35"/><stop offset="0.86" stop-color="#0ab24c"/><stop offset="0.88" stop-color="#0bbd50"/></linearGradient></defs><title>icon-jdl-actual-v1-2</title><path class="cls-1" d="M1189,702.22l.81.81a1.78,1.78,0,0,0-.41-.3A1.12,1.12,0,0,1,1189,702.22Z" transform="translate(-143.4 -264.53)"/><path class="cls-2" d="M1029.65,374.61c-2.56-10.29-11.11-23.17-22.29-32.82l42.52-8.44L979.27,311c-16.69-5.28-31.56-4.81-45.47,1.44a48.52,48.52,0,0,0-8.57,4.94A56.34,56.34,0,0,0,914.34,307l-.42-.3-72.43-42.12,36.13,53.8a72.2,72.2,0,0,0-19.69,6.82L789.05,360l37.34.56c-1.91,2.58-3.59,5.1-5.07,7.43l-16.69,26.19a61.82,61.82,0,0,0-6.16-3.43l-8.71-5.05a133.12,133.12,0,0,0-43.78-22l-5-4.17-18.63,1.49-10.19,13.81-1.91,13.34a86.75,86.75,0,0,0-12.16-14.58c-13.8-13.29-32.36-20-55.17-20H334.07l-11.91,83.21h-.24l-8.61,63.18a83.75,83.75,0,0,1-3.76,9.79,57.28,57.28,0,0,1-2.83,5.47c-.77,1.31-1.66,2.64-2.7,4.09l-.54.77-.11.16a27.61,27.61,0,0,1-2.27,2.64,25.58,25.58,0,0,1-4.54,3.65,9.09,9.09,0,0,1-5.16,1.46H193.14l-5.71,7.3a186.28,186.28,0,0,0-16.16,24.3c-1.51,2.71-2.94,5.45-4.26,8.16-3.48,7.16-6.82,14.63-9.94,22.21-1.49,3.63-2.76,6.83-3.87,9.77l-9.75,25.73H144L143.4,627H290.76A306.36,306.36,0,0,0,573.4,813.74a312.44,312.44,0,0,0,131.52-29.09C768.05,755.11,819,704.85,848.48,643.1c1.92-4.06,4.56-9.76,7.28-16.09H898.7l5.52-5.32c4.32-4.16,9.12-10,14.69-17.94,5.05-7.21,9.78-14.39,14-21.32s8-13.51,10.92-19.2l6.25-1.36-8.79,49.7,36.82-46.44,13.76,38.11,10-72.9,36.43-.93-30.59-31.06-10.44-7.26-.12-.08v-2.17a37.83,37.83,0,0,0-6.93-19.41c6.16-10.21,12.49-22.36,16-36.7,1.91-7.36,3.6-16.15,2-25.75a41.58,41.58,0,0,0-.81-6.48l35.88,28.85ZM398.53,599.77l-3.66,25.6h.6l-.24,1.64H526.56c24.11,0,45.82-2.19,64.53-6.51C610.58,616,628,608.72,642.8,598.93a151.89,151.89,0,0,0,39.3-37.88c1.29-1.78,2.57-3.62,3.83-5.49l-10,69.81h.31L676,627h98.28A240.84,240.84,0,0,1,628.65,726.9c-73.29,16.88-142.42-7.57-182.67-36.08-37.47-26.54-57.21-54.38-69-75.47A85.75,85.75,0,0,0,398.53,599.77ZM598,461.58c-.7,3.22-1.42,6.77-2.2,10.83l-.08.45a11.58,11.58,0,0,1-1.22,3.86,84.18,84.18,0,0,0-5,10.18c-1.64,4-4.81,8.33-9.43,12.84a99,99,0,0,1-10,8.53q-1.21.89-2.46,1.74c-2,1.38-4,2.67-6,3.85a121.14,121.14,0,0,1-22.08,10.49q-3.16,1.11-6.06,1.89L544,451.61h54.32l.17,4.75A21.59,21.59,0,0,1,598,461.58Zm218.52,61.26c.4.39.79.77,1.17,1.12l4.16,3.93h-7.29Zm134.54-70.56c-.6,0-1.18,0-1.76,0h-1q.72-5.44,1.22-10.9Zm-118.31-35.8a42.35,42.35,0,0,0-10.26,7.13c-1.06-3.36-2.22-6.68-3.38-9.65-.3-1.16-.66-2.29-1.06-3.38l18.07-10A68.39,68.39,0,0,0,832.78,416.48Z" transform="translate(-143.4 -264.53)"/><path class="cls-3" d="M849.39,488.88c.5-.63,1.1.35,1.51-.28a16.08,16.08,0,0,0-4.82-5.91c1.89.6,1.92-.08,1.42-1.41a45.36,45.36,0,0,1-2.44-9.85,81.14,81.14,0,0,1,9.44,10.36c14.2,18.54,21.55,39.57,22.93,62.81.08,1.38.13,2.76.17,4.14,3.43-.19,6.79-.51,10.13-.67-5.09-31.22-16.33-59-40.64-80.48A35.92,35.92,0,0,1,859.86,465c.08-1-1-1.05-1-2,1.69.5,3.09,1.74,4.9,1.73,1.45,1,3.16,1.15,4.78,1.63.58-1.08-1-2-.11-3a26.27,26.27,0,0,0,7.53,6.58,20.92,20.92,0,0,0-.07-3.48l1.38,2a38.81,38.81,0,0,0,5.46,7.64,59.32,59.32,0,0,1,5.45,8c-.85-6.3-2.12-12.47-4.92-18.23-1.35-2.86-2.86-5.62-5.42-7.62a8.94,8.94,0,0,0-3.93-2.88c-5.61-2.8-11.07-1.57-16.46.71a44.67,44.67,0,0,0-8.69,5.06,59,59,0,0,1,6.42-9.38l-3.25.25c3.23-2,6.62-3.67,9.61-6.25-1.17-.84-2.65-.22-4.31-1.25,7.15-.22,12.84-4.28,19.55-4.39-4.13-3-15-4.93-21.31-2.36-7.54,3-11,9.35-13.08,16.74-.74-.56-.45-1.26-.5-1.84-.16-1.62-.12-1.62-1.81-.88a19.94,19.94,0,0,0,2.18-6.64c.21-1.56-.61-.76-1.51-.64,2.82-3.58,3.39-8,6.16-11.46-5.12,2.08-9.37,5.21-11.84,10.25-2.59,5.29-1.54,10.49,1.34,15.93-5.91-3.71-11.35-7.15-18.17-6.72,5.51,1.16,10,4.18,14.33,7.66-4.6-1.53-9.09-1.81-13.39.8-4,2.45-6.66,6.12-8.56,10.48,3.2-2.58,7.34-3.24,10.67-5.61,0,1.68,2.64,1.38,6.77-.7.63.66-.72.78-.15,1.56l4.33.25c-7.43.56-14.24,2.23-18.48,9.05-3.49,5.59-3.65,11.79-2.84,18.16,2.19-5.65,6.95-9.69,9.15-15.72.39,1.53-.05,2.54-.15,3.85,3.44-2,5.85-4.8,8.68-7.79l-1.53,3.61c2.84-.95,5.38-2.23,8.6-2.88-6.43,5-11.47,10.5-10.73,19,.59,6.81,4.36,12,9.19,16.54-2-5.92-.47-12.3-2.47-18.22l2.14,3.36a40.52,40.52,0,0,0,1.74-10.9c.83.66.53,1.74,1.24,2.71a39.28,39.28,0,0,1,3.5-9.05c-.16,5.63,1,10.28,5.12,13.62,3.93,3.14,8.56,4.23,13.56,4.26C855.29,494.63,853.1,490.86,849.39,488.88Z" transform="translate(-143.4 -264.53)"/><path class="cls-4" d="M950.47,520.34c-.09-.69-1-.23-1-.88a13.85,13.85,0,0,1,6.22-2.23c-1.67-.4-1.39-.92-.42-1.68a39.28,39.28,0,0,0,6.24-6.21,70.9,70.9,0,0,0-11.65,3.45c-18.84,7.39-33.74,19.69-45.21,36.32-.68,1-1.34,2-2,3-2.45-1.69-4.79-3.43-7.19-5,17.81-20.89,38.61-36.45,66.26-41.5a30.86,30.86,0,0,0-8.3-7.61c.37-.75,1.22-.32,1.59-1-1.47-.39-3.06-.1-4.4-.91a14.27,14.27,0,0,1-4.27-.94c.06-1.06,1.61-1,1.43-2.16a23,23,0,0,1-8.54,1.51,18.78,18.78,0,0,1,1.62-2.56l-1.93.87a33.39,33.39,0,0,1-7.47,3.22,52.67,52.67,0,0,0-7.62,3.47,51.47,51.47,0,0,1,11.84-11.31,17.23,17.23,0,0,1,7.44-3.23,7.72,7.72,0,0,1,4.2-.38c5.42.45,8.89,3.81,11.86,7.91a38.05,38.05,0,0,1,4.15,7.66,51.46,51.46,0,0,0-.52-9.84l2.28,1.64c-1.49-2.93-3.24-5.7-4.3-8.95,1.25-.09,2.07,1,3.76,1-5.19-3.37-7.58-8.94-12.49-12,4.42-.4,13.29,3.06,16.83,7.81,4.2,5.64,3.91,11.86,2.14,18.29.81-.09.9-.74,1.2-1.14.85-1.14.82-1.15,1.74.15a17.32,17.32,0,0,1,1.37-5.9c.55-1.25.79-.29,1.41.2-.48-3.92,1.11-7.49.59-11.26,2.85,3.84,4.59,8.06,4.15,12.91-.46,5.09-3.58,8.47-8.15,11.22,6-.1,11.61-.21,16.46,3.16-4.6-1.6-9.29-1.39-14-.74,4.08.93,7.54,2.74,9.54,6.6a18.86,18.86,0,0,1,1.62,11.61c-1.21-3.35-4-5.69-5.37-8.94-.73,1.26-2.57-.17-4.69-3.56-.77.21.18.91-.59,1.22L973,511.8c5.25,3.76,9.53,8.05,9.61,15,.06,5.71-2.61,10.38-6.07,14.75.92-5.18-.79-10.3.29-15.76-1,1-1.1,1.9-1.61,2.92-1.64-3-2.18-6.19-2.92-9.68-.19,1.3-.32,2.22-.49,3.36a59.29,59.29,0,0,0-5.07-6c2.49,6.63,3.76,12.94-.6,18.91-3.5,4.78-8.61,6.92-14.24,8.15,4.17-3.48,5.88-8.91,10-12.42l-3.09,1.54a35,35,0,0,1,3.61-8.87c-.91.12-1.17,1.06-2.14,1.45a33.65,33.65,0,0,0,1.48-8.28c-2.41,4.25-5.32,7.21-9.91,7.81-4.32.57-8.23-.7-12-2.92C943.51,522,946.83,520.15,950.47,520.34Z" transform="translate(-143.4 -264.53)"/><path class="cls-5" d="M908.08,420.55c1.61-.34,1.27,2,2.73,1.53a32.58,32.58,0,0,0,.14-15.57c2.18,3.4,3.14,2.38,4.07-.35a92.58,92.58,0,0,1,9-18.65,166.79,166.79,0,0,1,1.32,28.57c-1.88,47.63-17.76,90.24-45.89,128.53-1.68,2.28-3.4,4.51-5.15,6.72,5.65,4.17,11.33,8,16.79,12.16,32.71-55.67,51.28-113.93,41.13-179.37a73.11,73.11,0,0,1,23.37,12.64c1.38-1.4-.23-3,1-4.32,2,3,2.59,6.75,5.43,9.1,1,3.43,3.47,5.92,5.39,8.8,2.32-.95,1-4.37,3.7-4.83a54.19,54.19,0,0,0,3.24,20.16c2-1.82,2.94-3.74,4.45-5.56l-.45,4.95c-1.52,6.3-1.43,12.71-1.4,19.13a120.34,120.34,0,0,1-1.83,19.61c6.88-11,12.92-22.34,16-35,1.62-6.26,2.83-12.55,1.43-19a18,18,0,0,0-2.4-9.63c-5.17-11.73-15.35-16.9-26.78-20.36a90.28,90.28,0,0,0-20.24-3.37c7.61-3.31,14.67-4.62,22.3-6.37l-5.42-3.83c7.66,1.07,15.18,2.85,23.24,2.71-.75-2.86-3.88-3.82-5.15-7.6,11.52,9,25.76,10,36.43,18.6-2.53-10.15-17.07-27.25-30.38-31.49-15.81-5-29.43.38-42.37,9.25-.44-1.86.94-2.57,1.6-3.55,1.88-2.76,1.94-2.72-1.67-3.75a40.75,40.75,0,0,0,12.06-7.58c2.37-2.18,0-2-1.53-3,9.09-1.94,15.82-8.22,24.62-10-10.76-3.4-21.51-4-31.95.65-11,4.93-16.1,14.48-18.67,26.76-4.44-13.52-8.51-26-19.78-34.24,7.14,9,10.3,19.63,12.52,30.71-5.22-8.39-11.93-14.69-22.07-16.2-9.54-1.41-18.44.92-27.1,5.3,8.38.12,15.74,4.49,24.06,5.1-2.24,2.61,2.36,5.61,11.54,7.73.13,1.87-2.15.29-2.26,2.25l6.48,6.05c-12.41-8.82-25.28-15.06-40.83-9.9-12.76,4.24-21.1,13.76-28.14,24.81,10.81-6,23.54-6.14,34.86-12.73-1.37,2.91-3.39,3.91-5.25,5.84,8,1.32,15.45.09,23.78-.92L887,374.69c5.68,2.21,11.35,3.52,17.25,6.69-16.68-.46-31.71,1.55-41.62,15.84-7.95,11.45-8.76,24.47-7.13,37.94,4.51-11.94,15.29-19.91,19.88-31.83-.31,2.46-.62,4.92-1,8.07a81.92,81.92,0,0,0,16.94-14.84c.45,2.12-1.44,3.42-1.57,5.87,5.4-3.63,10.37-7.05,17.28-9.64-7.59,8.63-11.91,17.39-9.71,28,2.07,10.06,7.92,17.81,15.73,24.39C909.85,437.27,911.33,428.5,908.08,420.55Z" transform="translate(-143.4 -264.53)"/><path class="cls-6" d="M813.09,603.41C779.4,676.72,712,728.66,636.31,746.1c-71.93,16.56-147.79-3.58-197.92-39.1-53.5-37.87-73.54-78.18-86-104.27l-27.1.11a144.55,144.55,0,0,0,8,17.72l21.75,38c6.77,4.72,42.91,64.17,123.39,94.91,83.33,31.83,188.08,22.16,259.94-33.14,42.34-32.59,73.23-70.42,91.75-116.87Z" transform="translate(-143.4 -264.53)"/><path class="cls-6" d="M350.69,660.06c-3.19-2.4-.66.28-3.76-3.8l-19.32-36.85C325.18,614,323,608.46,321,602.86l-16.07.08c33,94.18,112.18,162.6,204.27,184.56,132.37,31.56,268.66-32.61,325.52-151.87,3.47-7.3,9.34-20.12,13.67-32.22h-2.08C760.82,813.69,505.58,843.52,372.4,690.54l-17.13-21.63c-2.87-3.64-.54.45-2.95-4.09C350.69,661.79,351.22,663.41,350.69,660.06Z" transform="translate(-143.4 -264.53)"/><path class="cls-7" d="M701.25,607.05H894.64a105.16,105.16,0,0,0,12.18-14.76c4.72-6.62,9.14-13.21,13.27-19.83s7.48-12.41,10.06-17.4,3.72-7.48,3.43-7.48H793.93l13-91.21H722.79Z" transform="translate(-143.4 -264.53)"/><path class="cls-8" d="M707.11,425.09q-4.93-22.45-20-37t-41.52-14.54H453.94L445.4,433h263a21.9,21.9,0,0,0-.43-3.95C707.72,427.89,707.44,426.56,707.11,425.09Z" transform="translate(-143.4 -264.53)"/><path class="cls-9" d="M696.87,500.87a123.5,123.5,0,0,0,12.26-44.5H621.47a40.65,40.65,0,0,1-.9,9.91c-.75,3.39-1.45,6.83-2.14,10.36a30.26,30.26,0,0,1-3.5,10.14,64.83,64.83,0,0,0-4,7.93q-4,9.69-13.86,19.16a123.12,123.12,0,0,1-22.25,17,139,139,0,0,1-25.53,12.12q-13.1,4.63-23.67,4.64H514.17l13-91.21H441.72L420.17,607.05h109.7q34.38,0,60.37-5.95t45.67-18.73a132,132,0,0,0,34.43-32.81Q685.12,529.51,696.87,500.87Z" transform="translate(-143.4 -264.53)"/><polygon class="cls-10" points="202.44 168.49 285.69 168.49 294.66 109.02 210.95 109.02 202.44 168.49"/><path class="cls-11" d="M174.36,607.05h148q28.22,0,45.67-7.71a66,66,0,0,0,27.89-22.48q10.43-14.73,15.76-36.56a505.15,505.15,0,0,0,9.28-50l4.89-33.93h-83.7l-6.64,48a95.93,95.93,0,0,1-5.14,13.66,78.28,78.28,0,0,1-8.36,14.1,44.66,44.66,0,0,1-11.91,11,28.14,28.14,0,0,1-15.33,4.4h-89a163.75,163.75,0,0,0-18.3,29.07Q180.2,591.64,174.36,607.05Z" transform="translate(-143.4 -264.53)"/><path class="cls-12" d="M701.25,607.05H894.64a105.16,105.16,0,0,0,12.18-14.76c4.72-6.62,9.14-13.21,13.27-19.83s7.48-12.41,10.06-17.4,3.72-7.48,3.43-7.48H793.93l13-91.21H722.79Z" transform="translate(-143.4 -264.53)"/><path class="cls-12" d="M707.11,425.09q-4.93-22.45-20-37t-41.52-14.54H453.94L445.4,433h263a21.9,21.9,0,0,0-.43-3.95C707.72,427.89,707.44,426.56,707.11,425.09Z" transform="translate(-143.4 -264.53)"/><path class="cls-12" d="M696.87,500.87a123.5,123.5,0,0,0,12.26-44.5H621.47a40.65,40.65,0,0,1-.9,9.91c-.75,3.39-1.45,6.83-2.14,10.36a30.26,30.26,0,0,1-3.5,10.14,64.83,64.83,0,0,0-4,7.93q-4,9.69-13.86,19.16a123.12,123.12,0,0,1-22.25,17,139,139,0,0,1-25.53,12.12q-13.1,4.63-23.67,4.64H514.17l13-91.21H441.72L420.17,607.05h109.7q34.38,0,60.37-5.95t45.67-18.73a132,132,0,0,0,34.43-32.81Q685.12,529.51,696.87,500.87Z" transform="translate(-143.4 -264.53)"/><polygon class="cls-12" points="202.44 168.49 285.69 168.49 294.66 109.02 210.95 109.02 202.44 168.49"/><path class="cls-12" d="M174.36,607.05h148q28.22,0,45.67-7.71a66,66,0,0,0,27.89-22.48q10.43-14.73,15.76-36.56a505.15,505.15,0,0,0,9.28-50l4.89-33.93h-83.7l-6.64,48a95.93,95.93,0,0,1-5.14,13.66,78.28,78.28,0,0,1-8.36,14.1,44.66,44.66,0,0,1-11.91,11,28.14,28.14,0,0,1-15.33,4.4h-89a163.75,163.75,0,0,0-18.3,29.07Q180.2,591.64,174.36,607.05Z" transform="translate(-143.4 -264.53)"/><path class="cls-13" d="M734.06,380.31l-7.59,53h82.31c-2.4-8.32-6.1-18.17-8.47-20.53-3.46-3.47-13.59-7.27-13.59-7.27C766.29,388.33,746.44,382.36,734.06,380.31ZM701.28,608.7H894.42a108.89,108.89,0,0,0,12.32-15.17c4.77-6.81,9.24-13.58,13.42-20.38s7.56-12.76,10.17-17.89,3.76-7.68,3.47-7.68H794l12.85-91.68H722.76Zm7.29-183.42q-5-22.71-20.25-37.41t-42-14.71H452.56l-8.63,60.14h266a21.5,21.5,0,0,0-.43-4C709.18,428.11,708.91,426.76,708.57,425.28Zm-12,76.08a125.92,125.92,0,0,0,12.23-45H620.88a41.29,41.29,0,0,1-.89,9.93c-.74,3.4-1.44,6.85-2.12,10.38a30,30,0,0,1-3.46,10.16,66.81,66.81,0,0,0-3.95,7.94q-4,9.72-13.71,19.21a122.25,122.25,0,0,1-22,17,137.47,137.47,0,0,1-25.25,12.14q-12.94,4.65-23.4,4.65H514.76l12.87-91.4H442L420.49,608.7H530q34.27,0,60.23-6t45.57-18.94a132.38,132.38,0,0,0,34.36-33.17Q684.81,530.3,696.57,501.36ZM345.32,433.3h84.19l9.07-60.14H353.93ZM174.18,608.7h148.3q28.15,0,45.57-7.8a66.14,66.14,0,0,0,27.84-22.72q10.39-14.89,15.72-37t9.26-50.55l4.88-34.3H341.9l-6.57,48.13a97.59,97.59,0,0,1-5.09,13.69A77.62,77.62,0,0,1,322,532.31a44.64,44.64,0,0,1-11.77,11A27.49,27.49,0,0,1,295,547.77H206a166.85,166.85,0,0,0-18.51,29.78Q180.1,592.9,174.18,608.7Z" transform="translate(-143.4 -264.53)"/><path class="cls-14" d="M731.81,380.19S763.72,384,781.93,427l1.37,3.67s8.8-19.44,15.09-18.53a35.16,35.16,0,0,0-5.5-2.4,29.61,29.61,0,0,1-7-1.94c-3.43-1.49-8.36-4.13-8.36-4.13s-21.1-20.18-35.84-21l-3.56-3Z" transform="translate(-143.4 -264.53)"/><path class="cls-15" d="M733.89,382.44s32-4.74,49.15,42.4c0,0,6.09-15.21,13.92-13.62s7.81,15.68,7.81,15.68,1.28-11.4-6.62-15.76-34.88-20.3-34.88-20.3S749.35,381,733.89,382.44Z" transform="translate(-143.4 -264.53)"/><path class="cls-1" d="M1725.93,731.28l.81.81a1.84,1.84,0,0,0-.41-.31A1,1,0,0,1,1725.93,731.28Z" transform="translate(-143.4 -264.53)"/><rect class="cls-2" x="879.74" y="75.13" width="30" height="438.69"/><rect class="cls-16" x="886.6" y="82.37" width="16" height="424.69"/><path class="cls-2" d="M1554.05,587.64l5.69-14.23h-67.48l-8.34,19.24-8-9.57-4.39-9.67h-98.76a80.46,80.46,0,0,0-31.81,6.37,83.83,83.83,0,0,0-25.74,17.1,79.86,79.86,0,0,0-13.67,17.79l-.06-.08-2.45-2.93a80.93,80.93,0,0,0-27.87-27.21c-12.08-7.15-25.84-10.77-40.89-10.77a80.88,80.88,0,0,0-75.11,49.47,80.56,80.56,0,0,0-6.37,31.81,84.43,84.43,0,0,0,1.55,16.26h-7.23V595.53L1134.59,585V573.41h-73v63.11h9.51l.46.58v97.44h9.59l8.75,10.78h71.27c13.81,0,20.22-7.09,22.81-11.32a29.48,29.48,0,0,0,3-6.76A77.71,77.71,0,0,0,1204,738a83.55,83.55,0,0,0,35.52,7.59,82.44,82.44,0,0,0,31.37-6A78.93,78.93,0,0,0,1296.31,723a76.72,76.72,0,0,0,13.33-17.42,75.86,75.86,0,0,0,6.26,6.55l2.89,3.7.14.17a78.69,78.69,0,0,0,27.63,21.54,82.19,82.19,0,0,0,35.41,7.74h60.94V666.1l7.25,16.71v51.73h9.59l8.75,10.78h53.31V693.79L1563,598.66ZM1248.9,654.53a18.48,18.48,0,0,1-1.36,7.25,15.4,15.4,0,0,1-3.56,5.28,18.22,18.22,0,0,1-5.81,3.65,21,21,0,0,1-7.84,1.37,22.45,22.45,0,0,1-10.43-2.18,38.34,38.34,0,0,1-.21-4.19,19.74,19.74,0,0,1,1.49-7.81,17.65,17.65,0,0,1,4-6,20.06,20.06,0,0,1,14.32-5.6,18,18,0,0,1,8.44,1.76A19.41,19.41,0,0,1,1248.9,654.53Z" transform="translate(-143.4 -264.53)"/><path class="cls-1" d="M1117.58,590.78l8.58,10.58v86H1163v1.43l8.51,10.37v16.67q0,6.31-2.24,10t-9.15,3.66h-63.65l-8.75-10.78h-1.22v-87l-8.74-11h-1.22V589.56h41Z" transform="translate(-143.4 -264.53)"/><path d="M1115.38,591.39h-36.6v27.45h10v97.82h62q6.1,0,8-3.16c1.28-2.09,1.93-5.11,1.93-9V689.41h-45.35Z" transform="translate(-143.4 -264.53)"/><path class="cls-1" d="M1326.66,701.41a61.3,61.3,0,0,1-15.15-20.75,63.28,63.28,0,0,1-5.38-26.23,62.61,62.61,0,0,1,5.18-25.32,64.79,64.79,0,0,1,14.13-20.64,67.88,67.88,0,0,1,20.85-13.83,64.38,64.38,0,0,1,25.52-5.08h45.55v1.22l8.54,10.58v14.43q0,7.32-3.15,11.09t-10.27,3.76H1381a39,39,0,0,0-14.54,2.63,34.32,34.32,0,0,0-11.39,7.3,32.6,32.6,0,0,0-7.42,11,36.52,36.52,0,0,0-2.64,14.08,38.63,38.63,0,0,0,.5,6.19,25.49,25.49,0,0,0,1.73,6l4.07,4.06q3.86,2.83,11.39,4.66a78.12,78.12,0,0,0,18.1,1.82h5.69v-1.63h-16.27L1361.44,676h-1.22v-4.68c0-.81,0-1.63-.1-2.44s-.11-1.49-.11-2V646.5h57.35v1.22l8.54,10.37v71.38H1381a66,66,0,0,1-28.57-6.2,62.65,62.65,0,0,1-22.07-17.19Z" transform="translate(-143.4 -264.53)"/><path d="M1334.19,654.53a37.6,37.6,0,0,1,2.85-14.88,35.4,35.4,0,0,1,7.82-11.63,34.3,34.3,0,0,1,11.9-7.54,41.62,41.62,0,0,1,15-2.65h31.32q12.39,0,12.4-13.63v-13h-43.72a61.44,61.44,0,0,0-24.71,5,66.5,66.5,0,0,0-20.23,13.52,62.35,62.35,0,0,0-13.73,20.06,63.27,63.27,0,0,0,0,49.21,60.48,60.48,0,0,0,13.73,19.77,65.25,65.25,0,0,0,20.23,13.14,63.6,63.6,0,0,0,24.71,4.79h43.72V648.13h-53.28v12.09q0,3.07.1,6.66t.1,7.07h25.83v16.47a32.08,32.08,0,0,1-3.66.21h-3.86a82.92,82.92,0,0,1-18.92-1.84q-7.72-1.83-11.79-5.3a74.18,74.18,0,0,1-8-8,30.76,30.76,0,0,1-4.78-7.24,32.91,32.91,0,0,1-2.24-6.63A31.7,31.7,0,0,1,1334.19,654.53Z" transform="translate(-143.4 -264.53)"/><path class="cls-1" d="M1534.69,590.58l8.75,10.78-38.64,89.27v38.84h-29.69l-8.74-10.78h-1.22v-39l-17.9-41.28q-2.24-5.49-5-11.8t-5.49-12.81q-2.74-6.51-5.39-12.71t-4.68-11.49h33.55l1,2.24,7.93,9.56,13.63,30.7q2-4.68,4.06-9t4.27-9l10.58-24.4h33.35Z" transform="translate(-143.4 -264.53)"/><path d="M1531.85,591.39h-29.08l-21.56,49.82L1459,591.39h-29.28q4.68,11.19,9.66,23.18t9.86,23q4.47,10,9,20.64t8.85,21v37.42H1494V679.24Z" transform="translate(-143.4 -264.53)"/><path class="cls-1" d="M1298.87,643.92a66.45,66.45,0,0,0-10.78-19.11l-3-3.66a65,65,0,0,0-23-22.78q-14.44-8.54-32.74-8.54a64.9,64.9,0,0,0-60.4,39.76,64.24,64.24,0,0,0-5.08,25.52,62.8,62.8,0,0,0,20.13,47l3.87,4.48a59.58,59.58,0,0,0,21.86,17.08,67.31,67.31,0,0,0,28.77,6.1,66.24,66.24,0,0,0,25.32-4.78,62.61,62.61,0,0,0,20.33-13.22,61.65,61.65,0,0,0,13.63-20,63.73,63.73,0,0,0,5-25.42A64.82,64.82,0,0,0,1298.87,643.92Zm-37.62,24.28a31.66,31.66,0,0,1-7.22,10.58,33.93,33.93,0,0,1-10.88,6.91,36.6,36.6,0,0,1-13.83,2.54q-14.64,0-24.2-8.33a23.35,23.35,0,0,1-1.93-6.51,51.74,51.74,0,0,1-.51-7.53,35.75,35.75,0,0,1,2.75-14,33.88,33.88,0,0,1,7.52-11.18,35.79,35.79,0,0,1,11.29-7.42,36.21,36.21,0,0,1,14.23-2.75q12.4,0,21,6.92a33.15,33.15,0,0,1,4.47,17.28A34.14,34.14,0,0,1,1261.25,668.2Z" transform="translate(-143.4 -264.53)"/><path d="M1287.07,630.3a62.54,62.54,0,0,0-33.14-33.66,60.79,60.79,0,0,0-24.61-5,62.2,62.2,0,0,0-24.81,5,63,63,0,0,0-33.65,33.66,62,62,0,0,0-5,24.81,60.39,60.39,0,0,0,5,24.71,61.12,61.12,0,0,0,13.52,19.52,62.14,62.14,0,0,0,20.13,12.91,65.65,65.65,0,0,0,24.81,4.68,64.16,64.16,0,0,0,24.61-4.68,61.49,61.49,0,0,0,19.82-12.91,60.43,60.43,0,0,0,13.32-19.52,61.5,61.5,0,0,0,4.88-24.71A63.18,63.18,0,0,0,1287.07,630.3Zm-25.82,37.9a31.66,31.66,0,0,1-7.22,10.58,33.93,33.93,0,0,1-10.88,6.91,36.6,36.6,0,0,1-13.83,2.54q-14.64,0-24.2-8.33a23.35,23.35,0,0,1-1.93-6.51,51.74,51.74,0,0,1-.51-7.53,35.75,35.75,0,0,1,2.75-14,33.88,33.88,0,0,1,7.52-11.18,35.79,35.79,0,0,1,11.29-7.42,36.21,36.21,0,0,1,14.23-2.75q12.4,0,21,6.92a33.15,33.15,0,0,1,4.47,17.28A34.14,34.14,0,0,1,1261.25,668.2Z" transform="translate(-143.4 -264.53)"/><path class="cls-1" d="M1263.28,640.47a37.39,37.39,0,0,0-7.73-11.7,35.46,35.46,0,0,0-11.59-7.83,37.21,37.21,0,0,0-14.64-2.84,39.79,39.79,0,0,0-14.84,2.74,34.65,34.65,0,0,0-11.9,7.73,36.6,36.6,0,0,0-7.83,11.69,37.12,37.12,0,0,0-2.85,14.65,35.57,35.57,0,0,0,2.85,14.43,33.72,33.72,0,0,0,7.83,11.19,35.7,35.7,0,0,0,11.9,7.32,41.19,41.19,0,0,0,14.84,2.64,39.62,39.62,0,0,0,14.64-2.64,35,35,0,0,0,11.59-7.32,34.05,34.05,0,0,0,7.73-11.29,35.77,35.77,0,0,0,2.85-14.33A36.51,36.51,0,0,0,1263.28,640.47Zm-2,27.73a31.66,31.66,0,0,1-7.22,10.58,33.93,33.93,0,0,1-10.88,6.91,36.6,36.6,0,0,1-13.83,2.54q-14.64,0-24.2-8.33a23.35,23.35,0,0,1-1.93-6.51,51.74,51.74,0,0,1-.51-7.53,35.75,35.75,0,0,1,2.75-14,33.88,33.88,0,0,1,7.52-11.18,35.79,35.79,0,0,1,11.29-7.42,36.21,36.21,0,0,1,14.23-2.75q12.4,0,21,6.92a33.15,33.15,0,0,1,4.47,17.28A34.14,34.14,0,0,1,1261.25,668.2Z" transform="translate(-143.4 -264.53)"/><path class="cls-2" d="M1832.68,454.17l0-.13a82.8,82.8,0,0,0-13.32-23.56l-2.45-2.94A81.05,81.05,0,0,0,1789,400.33a79.17,79.17,0,0,0-40.88-10.77,81.62,81.62,0,0,0-57.78,23.7c-.49.49-1,1-1.44,1.48v-5l-8.74-10.58V387.73h-62.91v32.34l-8.91-13.4-6.31-7.75-7.29-11.19h-83.91c-19,0-31.25,12.09-31.25,30.79V440.4h-1.35V409.71l-8.75-10.53V387.73H1397.2v16.6a83,83,0,0,0-8.18-5.51,79.49,79.49,0,0,0-41.1-11.29,81.38,81.38,0,0,0-31.87,6.35A83.22,83.22,0,0,0,1294.69,407l-6.42-7.77V387.73h-115.1v-.2h-115v63.52h9.6l9,10.57h8.7v87.44h9.6l9,10.58h52.7v-98h10.09v87.24h9.31l8.94,10.78h112V533.78c1.87,2,3.83,3.89,5.88,5.69l21,25-8.4-16c2,1.15,4,2.23,6.08,3.22a81.55,81.55,0,0,0,35.7,7.89,77.54,77.54,0,0,0,41.61-11.93,88.57,88.57,0,0,0,7.67-5.37v6.52h9.3l9,10.78h53.41V514.49h1.35v34.37h9.5l9,10.78h53.2v-6.71l5.57,6.71h24c8.78,0,15.84-2.44,21-7.26,5.46-5.1,8.23-12.42,8.23-21.76V527.8l14.09,21.06h1.64l9,10.78h54.22v-33c.75.78,1.51,1.54,2.29,2.28l3.14,3.64a75.8,75.8,0,0,0,27.42,21.36,83.58,83.58,0,0,0,35.52,7.59,82.48,82.48,0,0,0,31.37-6,78.77,78.77,0,0,0,25.46-16.58,77.83,77.83,0,0,0,17.15-25.16,79.86,79.86,0,0,0,6.28-31.73A81.17,81.17,0,0,0,1832.68,454.17Zm-66,16.24a18.48,18.48,0,0,1-1.36,7.25,15.4,15.4,0,0,1-3.56,5.28,18.05,18.05,0,0,1-5.81,3.65,21,21,0,0,1-7.84,1.38,22.44,22.44,0,0,1-10.43-2.19,38.15,38.15,0,0,1-.21-4.18,19.78,19.78,0,0,1,1.49-7.82,17.78,17.78,0,0,1,4-6,20.26,20.26,0,0,1,6.32-4.11,20.46,20.46,0,0,1,8-1.49,18.13,18.13,0,0,1,8.43,1.76A19.15,19.15,0,0,1,1766.67,470.41Zm-395.19-3.54-6.27,9.18a27.42,27.42,0,0,1-8.34,8.22,16,16,0,0,1-8.54,2.29,23.83,23.83,0,0,1-11.15-2.41,28.56,28.56,0,0,1-.31-4.24,18.8,18.8,0,0,1,1.48-7.71,18.58,18.58,0,0,1,4.18-6.06,19.67,19.67,0,0,1,6.39-4,23.71,23.71,0,0,1,8.76-1.53,18.23,18.23,0,0,1,7.42,1.45,16.62,16.62,0,0,1,5.69,4Zm25,8.45,10.08-4v8.06l-1.16-.44Z" transform="translate(-143.4 -264.53)"/><polygon class="cls-1" points="1014.27 139.12 1014.27 140.75 1022.82 151.32 1022.82 181.22 997.8 181.22 997.8 279.23 968.52 279.23 959.57 268.66 958.56 268.66 958.56 181.22 941.27 181.22 932.32 170.64 931.31 170.64 931.31 139.12 1014.27 139.12"/><polygon points="933.34 141.36 933.34 168.41 960.59 168.41 960.59 266.42 987.02 266.42 987.02 168.41 1012.04 168.41 1012.04 141.36 933.34 141.36"/><polygon class="cls-1" points="1079.55 188.74 1119.57 188.74 1119.57 190.36 1128.56 200.88 1128.56 230.84 1079.55 230.84 1079.55 237.14 1129.37 237.14 1129.37 238.57 1138.12 248.99 1138.12 279.23 1049.66 279.23 1040.71 268.46 1039.9 268.46 1039.9 181.42 1031.36 171.05 1030.34 171.05 1030.34 139.33 1129.37 139.33 1129.37 140.55 1138.12 151.12 1138.12 181.83 1079.55 181.83 1079.55 188.74"/><polygon points="1117.78 217.82 1117.78 190.98 1068.77 190.98 1068.77 169.02 1127.54 169.02 1127.54 141.36 1032.37 141.36 1032.37 169.02 1041.93 169.02 1041.93 266.42 1127.54 266.42 1127.54 239.38 1068.77 239.38 1068.77 217.82 1117.78 217.82"/><path class="cls-1" d="M1303.28,516.11A62.08,62.08,0,0,1,1288,495.26a63.43,63.43,0,0,1-5.49-26.53,62.53,62.53,0,0,1,5.18-25.42,65.87,65.87,0,0,1,35.08-34.57,65,65,0,0,1,25.62-5.09,63.48,63.48,0,0,1,32.95,9.05A73.26,73.26,0,0,1,1406.58,438l2.65,2.85a97,97,0,0,1,6.71,9.76l-27.45,11-5.29-6.1a32.83,32.83,0,0,0-11.29-8,34.45,34.45,0,0,0-13.72-2.75,39.71,39.71,0,0,0-14.65,2.65,35.27,35.27,0,0,0-11.59,7.35,34.51,34.51,0,0,0-10.57,25.3,38.8,38.8,0,0,0,2.44,14.09q10.17,8.56,25,8.57a32,32,0,0,0,16.78-4.58,43,43,0,0,0,13.32-12.91l6.51,2.84,14.64,5.9,7.52,2.85-.61,1,9,10.54a75.39,75.39,0,0,1-25,25.9,61.4,61.4,0,0,1-33.15,9.51,65.33,65.33,0,0,1-51-23.59Z" transform="translate(-143.4 -264.53)"/><path d="M1404.55,438.24a68.88,68.88,0,0,0-23.89-24.11,63.61,63.61,0,0,0-57-3.87,64.06,64.06,0,0,0-34,33.58A61.59,61.59,0,0,0,1303.28,513a65.37,65.37,0,0,0,20.23,13.14,63.46,63.46,0,0,0,24.71,4.79,60.84,60.84,0,0,0,32.23-9,69.91,69.91,0,0,0,23.9-24.25q-6.31-2.65-12.1-5t-12.51-5.2A38.53,38.53,0,0,1,1366.52,500a35.27,35.27,0,0,1-17.69,4.48,42.47,42.47,0,0,1-15.15-2.65,36.75,36.75,0,0,1-12.1-7.33,34,34,0,0,1-8-11.31,35.36,35.36,0,0,1-3-14.57,36.64,36.64,0,0,1,3-14.88,35.87,35.87,0,0,1,8-11.61,35,35,0,0,1,12.1-7.54,42.47,42.47,0,0,1,15.15-2.65,35.95,35.95,0,0,1,30.91,16.51Z" transform="translate(-143.4 -264.53)"/><path class="cls-1" d="M1496.06,498.62h-33.35v45.14h-29.89l-9-10.77h-.81V444.93l-8.34-10.16h-1V403.86H1454v1.22l8.74,10.53v40.91h33.35V418.64q0-14.77,15.25-14.78H1527v1.22l8.74,10.57V543.76H1506l-9-10.77h-1Z" transform="translate(-143.4 -264.53)"/><path d="M1497.89,531h27V405.69h-13.73q-13.32,0-13.32,13v40.06h-46V405.69h-36.19v27.25h9.35v98h26.84V485.81h46Z" transform="translate(-143.4 -264.53)"/><path class="cls-1" d="M1594.48,475.23v55.52q0,7.13-3.15,10.06t-10.06,3h-16.48L1555.85,533h-1V443.92l-7.32-8.95h-1V403.86h40.06l3,4.67,5.9,7.12,38.23,57.55V403.86h30.91v1.22l8.75,10.57V543.76h-30.71l-9-10.77h-.61Z" transform="translate(-143.4 -264.53)"/><path d="M1634.21,531h28.4V405.69h-27v75.85l-50-75.85h-37v27.45h8.13V531h15.46q5.89,0,8.74-2.74t2.85-9.05V455.3Z" transform="translate(-143.4 -264.53)"/><path class="cls-1" d="M1818.15,459.78a66.29,66.29,0,0,0-10.77-19.11l-3.05-3.66a65,65,0,0,0-23-22.78q-14.44-8.53-32.74-8.54a64.88,64.88,0,0,0-60.4,39.75,64.15,64.15,0,0,0,15,72.5l3.86,4.47A59.77,59.77,0,0,0,1729,539.5a67.53,67.53,0,0,0,28.78,6.1,66.34,66.34,0,0,0,25.31-4.78,62.71,62.71,0,0,0,20.34-13.22,61.63,61.63,0,0,0,13.62-20,63.73,63.73,0,0,0,5-25.42A64.59,64.59,0,0,0,1818.15,459.78Zm-37.62,24.28a31.37,31.37,0,0,1-7.22,10.57,33.79,33.79,0,0,1-10.88,6.92,36.51,36.51,0,0,1-13.82,2.54q-14.65,0-24.2-8.34a23.3,23.3,0,0,1-1.94-6.5,51.8,51.8,0,0,1-.5-7.53,35.75,35.75,0,0,1,2.74-14,33.8,33.8,0,0,1,7.53-11.18,35.77,35.77,0,0,1,11.28-7.43,36.26,36.26,0,0,1,14.24-2.74q12.39,0,20.94,6.91a33.22,33.22,0,0,1,4.48,17.29A34.14,34.14,0,0,1,1780.53,484.06Z" transform="translate(-143.4 -264.53)"/><path d="M1806.36,446.16a62.43,62.43,0,0,0-33.15-33.66,60.7,60.7,0,0,0-24.6-5,62.13,62.13,0,0,0-24.81,5,62.94,62.94,0,0,0-33.66,33.66,62.13,62.13,0,0,0-5,24.81,60.53,60.53,0,0,0,18.51,44.22,62,62,0,0,0,20.13,12.92,65.58,65.58,0,0,0,24.81,4.68,64.07,64.07,0,0,0,24.6-4.68A61.51,61.51,0,0,0,1793,515.19a60.64,60.64,0,0,0,13.32-19.52,61.62,61.62,0,0,0,4.88-24.7A63.29,63.29,0,0,0,1806.36,446.16Zm-25.83,37.9a31.37,31.37,0,0,1-7.22,10.57,33.79,33.79,0,0,1-10.88,6.92,36.51,36.51,0,0,1-13.82,2.54q-14.65,0-24.2-8.34a23.3,23.3,0,0,1-1.94-6.5,51.8,51.8,0,0,1-.5-7.53,35.75,35.75,0,0,1,2.74-14,33.8,33.8,0,0,1,7.53-11.18,35.77,35.77,0,0,1,11.28-7.43,36.26,36.26,0,0,1,14.24-2.74q12.39,0,20.94,6.91a33.22,33.22,0,0,1,4.48,17.29A34.14,34.14,0,0,1,1780.53,484.06Z" transform="translate(-143.4 -264.53)"/><path class="cls-1" d="M1782.57,456.32a37.52,37.52,0,0,0-7.73-11.69,35.41,35.41,0,0,0-11.59-7.83,37.1,37.1,0,0,0-14.64-2.84,39.88,39.88,0,0,0-14.85,2.74,34.7,34.7,0,0,0-11.89,7.73,36.28,36.28,0,0,0-7.83,11.69,37,37,0,0,0-2.85,14.64A35.62,35.62,0,0,0,1714,485.2a33.29,33.29,0,0,0,7.83,11.18,35.78,35.78,0,0,0,11.89,7.33,41.28,41.28,0,0,0,14.85,2.64,39.69,39.69,0,0,0,14.64-2.64,35.12,35.12,0,0,0,11.59-7.33,34.06,34.06,0,0,0,7.73-11.28,36,36,0,0,0,2.84-14.34A36.76,36.76,0,0,0,1782.57,456.32Zm-2,27.74a31.37,31.37,0,0,1-7.22,10.57,33.79,33.79,0,0,1-10.88,6.92,36.51,36.51,0,0,1-13.82,2.54q-14.65,0-24.2-8.34a23.3,23.3,0,0,1-1.94-6.5,51.8,51.8,0,0,1-.5-7.53,35.75,35.75,0,0,1,2.74-14,33.8,33.8,0,0,1,7.53-11.18,35.77,35.77,0,0,1,11.28-7.43,36.26,36.26,0,0,1,14.24-2.74q12.39,0,20.94,6.91a33.22,33.22,0,0,1,4.48,17.29A34.14,34.14,0,0,1,1780.53,484.06Z" transform="translate(-143.4 -264.53)"/></svg>