<svg id="Capa_1" data-name="Capa 1" xmlns="http://www.w3.org/2000/svg" viewBox="0 0 1061 1061"><defs><style>.cls-1{fill:#d4d4d4;}.cls-2{fill:#5b5b5b;}.cls-3{fill:#5e5e5e;}.cls-4{fill:#5d5d5d;}.cls-5{fill:#bbb;}.cls-6{fill:#5c5c5c;}.cls-7{fill:#616161;}</style></defs><title>sin-foto</title><path class="cls-1" d="M1070.21,23.21c0-11.44-1.37-14.22-9.34-14.2q-260.74.66-521.48.34Q279.19,9.35,19,9c-8.48,0-9.78,3.44-9.77,15.17q.34,516.19,0,1032.41c0,10.9,1.26,13.38,8.79,13.38q521.49-.56,1043,0c8.23,0,9.22-3.32,9.21-14.37Q1069.87,539.42,1070.21,23.21Z" transform="translate(-9.21 -9)"/><path class="cls-2" d="M539.42,672.73c-80,0-159.94.16-239.91-.06-44-.13-66.46-22.51-66.56-66.47q-.31-139.14,0-278.29c.1-46.45,22.79-68.66,69.63-68.75,56.78-.11,113.56-.31,170.34.28,8.92.09,25.06-6.25,24.42,9.79-.6,14.85-16.37,8.83-25.54,8.91-56.78.55-113.56.09-170.34.34-33.58.15-49,14.53-49.17,47.78q-.75,140.36,0,280.7c.14,31.77,15.41,46.35,47.56,46.39q238.71.3,477.42.09c35.77,0,49.27-13.58,49.37-49.47q.39-136.74,0-273.5c-.11-38.16-14.24-51.83-52.11-52-8,0-16-.45-24,.08-13.57.9-22-1.88-24.87-18.12C722,239.85,707,229.65,685.8,229.64q-46.78,0-93.56,0c-23.29,0-37.7,11.39-42.74,34-1.64,7.35-2.12,15.77-12.15,13.69-9.54-2-7.75-10.92-7-17.86,2.9-26.27,25.51-47.59,54.42-48.58,35.94-1.24,72-1.07,107.93,0,21.57.62,38.74,11.81,47,31.81,5.54,13.33,12.91,18.23,26.74,16.66,56.2-6.35,81.48,27.47,80.06,80.58-2.32,87.11-.65,174.32-.58,261.49,0,50.07-21.06,71.45-71.45,71.54q-117.56.21-235.11,0Z" transform="translate(-9.21 -9)"/><path class="cls-2" d="M499.69,468c-.29-79,60-140.55,138.13-141,75.95-.48,139,61.42,140.2,137.71,1.25,76.88-61.67,140.22-139.35,140.29C560.65,605,500,545.19,499.69,468Z" transform="translate(-9.21 -9)"/><path class="cls-3" d="M289.24,356.13c.52-18.49,10.94-28.82,28.19-28.87,16.28,0,27,10.63,27.42,27.23.44,18-10.63,28.9-28.14,28.69C300.73,383,290.44,373.21,289.24,356.13Z" transform="translate(-9.21 -9)"/><path class="cls-4" d="M638.49,259.25c15.07,0,30.14-.16,45.2.08,6.84.11,13.3,2.32,12.61,10.69-.73,8.81-8.45,8.24-14.59,8.28-29.35.19-58.69.05-88,.08-6.77,0-13.37-.75-13.48-9.39-.1-8.46,6.11-9.88,13.09-9.84,15.07.08,30.13,0,45.2,0Z" transform="translate(-9.21 -9)"/><path class="cls-3" d="M336.37,576.07c-11.88,0-23.76.14-35.64-.06-5.05-.08-9.66-1.85-10.18-7.73-.61-6.77,3.47-10.79,9.77-10.85,23.74-.25,47.5-.08,71.25.28,5.3.08,8.68,3.59,9,9.12.38,7.62-5,9.16-10.89,9.28-11.09.22-22.18.06-33.27.06Z" transform="translate(-9.21 -9)"/><path class="cls-1" d="M638,585.67c-67.84-.38-119.46-52.82-119-120.88C519.47,398,573.69,345.31,641,346.26c63.68.9,117.29,55.37,117.11,119C757.88,533,705,586.06,638,585.67Z" transform="translate(-9.21 -9)"/><path class="cls-5" d="M324.31,356.12c-.21,2.78-1.54,6.68-6.32,7-5.71.43-8.76-3-8.61-8.65A7.41,7.41,0,0,1,317,347C321.43,346.89,324,350.08,324.31,356.12Z" transform="translate(-9.21 -9)"/><path class="cls-6" d="M638.19,561.83c-54,0-95.25-41.52-95.4-95.82-.15-53.69,42-96,95.58-96.1,52.17-.08,97.28,45,96.37,96.35C733.79,520,691.53,561.87,638.19,561.83Z" transform="translate(-9.21 -9)"/><path class="cls-1" d="M562.51,465.78c.11-42.62,33.16-76,75.52-76.23,42.19-.25,75.85,33.41,75.94,76,.1,43.42-32.06,76.73-74.36,77C595.24,542.82,562.39,510.12,562.51,465.78Z" transform="translate(-9.21 -9)"/><path class="cls-7" d="M586.19,459.31c.95-21.25,24.17-44.59,45.52-45.93,5.9-.37,11.74-.24,13.76,6.45,2.43,8-2.08,11.17-9.58,12.93-16.91,4-28.7,13.35-30.89,32-.73,6.21-4.33,11-11.1,9.79C585.45,473,586.16,465.73,586.19,459.31Z" transform="translate(-9.21 -9)"/><path class="cls-2" d="M284,783.64H257.12v-6.35H284Z" transform="translate(-9.21 -9)"/><path class="cls-2" d="M324.25,783.64H297.39v-6.35h26.86Z" transform="translate(-9.21 -9)"/><path class="cls-2" d="M364.13,805.67v-9.74a18.88,18.88,0,0,0,4,2.66,32.23,32.23,0,0,0,4.92,2,38.39,38.39,0,0,0,5.19,1.25,28.36,28.36,0,0,0,4.82.45q7.62,0,11.38-2.83A10.63,10.63,0,0,0,397,786.34a14.21,14.21,0,0,0-3.47-3.86,33.86,33.86,0,0,0-5.24-3.34q-3-1.6-6.51-3.37Q378,773.9,374.85,772a29.79,29.79,0,0,1-5.55-4.23,17.49,17.49,0,0,1-3.72-5.23,17.86,17.86,0,0,1,.77-15.25,18,18,0,0,1,5.55-5.88,25.14,25.14,0,0,1,7.85-3.44,36,36,0,0,1,9-1.13q10.42,0,15.2,2.51v9.29q-6.26-4.32-16-4.33a26.1,26.1,0,0,0-5.41.57,15.35,15.35,0,0,0-4.82,1.84,10.89,10.89,0,0,0-3.45,3.3,8.77,8.77,0,0,0-1.32,4.92,10.15,10.15,0,0,0,1,4.67,11.59,11.59,0,0,0,3,3.59,30.12,30.12,0,0,0,4.79,3.15c1.89,1,4.06,2.13,6.52,3.34s4.92,2.56,7.18,3.94a32.49,32.49,0,0,1,5.95,4.57,20.1,20.1,0,0,1,4.06,5.56,15.61,15.61,0,0,1,1.5,7,17.71,17.71,0,0,1-2,8.83,16.67,16.67,0,0,1-5.51,5.87,24.23,24.23,0,0,1-8,3.28,44,44,0,0,1-9.54,1,38.86,38.86,0,0,1-4.13-.27c-1.64-.18-3.32-.44-5-.78a41.65,41.65,0,0,1-4.84-1.28A15.24,15.24,0,0,1,364.13,805.67Z" transform="translate(-9.21 -9)"/><path class="cls-2" d="M424,745.38a5.1,5.1,0,0,1-3.68-1.48,5,5,0,0,1-1.53-3.74A5.17,5.17,0,0,1,424,734.9a5.23,5.23,0,0,1,3.77,1.5,5,5,0,0,1,1.55,3.76,5,5,0,0,1-1.55,3.69A5.18,5.18,0,0,1,424,745.38Zm3.94,63.14h-8.07V758.16h8.07Z" transform="translate(-9.21 -9)"/><path class="cls-2" d="M486.05,808.52H478V779.8q0-16-11.7-16a12.71,12.71,0,0,0-10,4.55,16.85,16.85,0,0,0-4,11.48v28.72h-8.06V758.16h8.06v8.36h.2Q458.21,757,469,757q8.27,0,12.64,5.34t4.38,15.42Z" transform="translate(-9.21 -9)"/><path class="cls-2" d="M565.72,745.47H538.18v24.4h25.48v7.42H538.18v31.23h-8.26V738h35.8Z" transform="translate(-9.21 -9)"/><path class="cls-2" d="M599.07,809.7q-11.18,0-17.83-7.05t-6.67-18.72q0-12.69,6.94-19.82T600.25,757q11.25,0,17.58,6.94t6.32,19.23q0,12-6.81,19.3T599.07,809.7Zm.59-45.93c-5.19,0-9.28,1.76-12.3,5.29s-4.52,8.38-4.52,14.58q0,9,4.57,14.11t12.25,5.17q7.82,0,12-5.07t4.2-14.41q0-9.44-4.2-14.56T599.66,763.77Z" transform="translate(-9.21 -9)"/><path class="cls-2" d="M660.39,808a15.53,15.53,0,0,1-7.52,1.58q-13.23,0-13.23-14.76v-29.8H631v-6.89h8.66V745.87l8.06-2.61v14.9h12.69v6.89H647.7v28.37q0,5.07,1.73,7.23t5.7,2.17a8.5,8.5,0,0,0,5.26-1.67Z" transform="translate(-9.21 -9)"/><path class="cls-2" d="M691.43,809.7q-11.17,0-17.83-7.05t-6.67-18.72q0-12.69,6.94-19.82T692.61,757q11.25,0,17.58,6.94t6.32,19.23q0,12-6.81,19.3T691.43,809.7Zm.59-45.93c-5.19,0-9.28,1.76-12.3,5.29s-4.52,8.38-4.52,14.58q0,9,4.57,14.11T692,802.92q7.82,0,12-5.07t4.21-14.41q0-9.44-4.21-14.56T692,763.77Z" transform="translate(-9.21 -9)"/><path class="cls-2" d="M782.75,783.64H755.9v-6.35h26.85Z" transform="translate(-9.21 -9)"/><path class="cls-2" d="M823,783.64H796.18v-6.35H823Z" transform="translate(-9.21 -9)"/></svg>